<?xml version="1.0" standalone="no"?>
<!DOCTYPE svg PUBLIC "-//W3C//DTD SVG 20010904//EN"
 "http://www.w3.org/TR/2001/REC-SVG-20010904/DTD/svg10.dtd">
<svg version="1.0" xmlns="http://www.w3.org/2000/svg"
 width="1280.000000pt" height="1280.000000pt" viewBox="0 0 1280.000000 1280.000000"
 preserveAspectRatio="xMidYMid meet">
<metadata>
Created by potrace 1.11, written by Peter Selinger 2001-2013
</metadata>
<g transform="translate(0.000000,1280.000000) scale(0.100000,-0.100000)"
fill="#000000" stroke="none">
<path d="M8339 9548 c-305 -543 -541 -1069 -626 -1396 -76 -297 -37 -529 124
-740 98 -129 259 -234 423 -278 89 -24 282 -24 370 0 93 25 235 97 304 154
184 153 298 405 283 627 -23 339 -261 917 -694 1683 -42 72 -77 132 -78 132
-2 0 -49 -82 -106 -182z m-262 -913 c9 -38 47 -157 85 -264 91 -256 111 -340
112 -471 1 -90 -2 -111 -21 -145 -103 -192 -380 -175 -458 29 -15 38 -17 65
-12 144 11 189 71 397 199 681 62 138 73 157 76 129 1 -18 10 -64 19 -103z"/>
<path d="M3604 9428 c-88 -151 -290 -519 -384 -698 -512 -984 -780 -1714 -780
-2122 0 -541 375 -1024 900 -1162 254 -67 511 -51 755 47 390 157 672 505 740
916 23 137 17 353 -15 496 -88 402 -282 896 -611 1555 -210 419 -542 1029
-561 1030 -4 0 -24 -28 -44 -62z m-555 -1478 c2 -130 27 -222 160 -587 116
-319 147 -434 172 -633 24 -199 -5 -316 -105 -416 -71 -70 -130 -101 -220
-117 -124 -21 -241 18 -337 113 -104 103 -130 200 -111 408 28 317 125 622
358 1129 43 95 80 173 80 173 1 0 2 -32 3 -70z"/>
<path d="M6336 7917 c-559 -961 -1017 -1895 -1262 -2572 -247 -680 -286 -1096
-142 -1504 185 -524 619 -900 1178 -1018 66 -14 131 -18 290 -18 159 0 224 4
290 18 152 32 253 67 395 137 437 215 735 602 841 1090 24 107 27 455 6 565
-71 365 -189 728 -399 1220 -195 457 -521 1109 -843 1685 -134 241 -284 500
-290 500 -3 0 -32 -46 -64 -103z m-673 -2102 c31 -119 76 -251 190 -560 127
-344 182 -548 206 -767 22 -198 12 -291 -45 -407 -151 -307 -564 -376 -809
-135 -129 127 -168 264 -146 514 26 303 103 604 248 970 41 102 114 265 269
601 l49 106 6 -111 c4 -67 17 -151 32 -211z"/>
</g>
</svg>
